<mxfile host="app.diagrams.net" modified="2024-12-05T03:15:36.157Z" agent="Mozilla/5.0 (Windows NT 10.0; Win64; x64) AppleWebKit/537.36 (KHTML, like Gecko) Chrome/130.0.0.0 Safari/537.36" etag="n2p5uHqIbmx7_c0B6HKV" version="24.2.3" type="github">
  <diagram name="第 1 页" id="ynbWtSUoUX-ZjngtIT1S">
    <mxGraphModel dx="2314" dy="1098" grid="1" gridSize="10" guides="1" tooltips="1" connect="1" arrows="1" fold="1" page="1" pageScale="1" pageWidth="827" pageHeight="1169" math="0" shadow="0">
      <root>
        <mxCell id="0" />
        <mxCell id="1" parent="0" />
        <mxCell id="TBJRazzx7p23CoDuYq6t-28" value="" style="rounded=0;whiteSpace=wrap;html=1;" parent="1" vertex="1">
          <mxGeometry x="710" y="380" width="390" height="260" as="geometry" />
        </mxCell>
        <mxCell id="TBJRazzx7p23CoDuYq6t-25" value="Backend&lt;div&gt;&lt;br&gt;&lt;/div&gt;&lt;div&gt;&lt;br&gt;&lt;/div&gt;&lt;div&gt;&lt;br&gt;&lt;/div&gt;&lt;div&gt;&lt;br&gt;&lt;/div&gt;&lt;div&gt;&lt;br&gt;&lt;/div&gt;&lt;div&gt;&lt;br&gt;&lt;/div&gt;&lt;div&gt;&lt;br&gt;&lt;/div&gt;" style="rounded=0;whiteSpace=wrap;html=1;" parent="1" vertex="1">
          <mxGeometry x="930" y="410" width="160" height="160" as="geometry" />
        </mxCell>
        <mxCell id="TBJRazzx7p23CoDuYq6t-1" value="Nanhu-V2&lt;div&gt;OoO&lt;/div&gt;&lt;div&gt;RISC-V&lt;/div&gt;&lt;div&gt;(RV64GCBK)&lt;/div&gt;" style="rounded=0;whiteSpace=wrap;html=1;" parent="1" vertex="1">
          <mxGeometry x="180" y="270" width="110" height="90" as="geometry" />
        </mxCell>
        <mxCell id="TBJRazzx7p23CoDuYq6t-2" value="Frontend" style="rounded=0;whiteSpace=wrap;html=1;" parent="1" vertex="1">
          <mxGeometry x="200" y="480" width="120" height="100" as="geometry" />
        </mxCell>
        <mxCell id="TBJRazzx7p23CoDuYq6t-6" value="Float Block" style="rounded=0;whiteSpace=wrap;html=1;" parent="1" vertex="1">
          <mxGeometry x="200" y="600" width="80" height="40" as="geometry" />
        </mxCell>
        <mxCell id="TBJRazzx7p23CoDuYq6t-7" value="Int Block" style="rounded=0;whiteSpace=wrap;html=1;" parent="1" vertex="1">
          <mxGeometry x="290" y="600" width="80" height="40" as="geometry" />
        </mxCell>
        <mxCell id="TBJRazzx7p23CoDuYq6t-8" value="MEM Block" style="rounded=0;whiteSpace=wrap;html=1;" parent="1" vertex="1">
          <mxGeometry x="380" y="600" width="80" height="40" as="geometry" />
        </mxCell>
        <mxCell id="TBJRazzx7p23CoDuYq6t-9" value="sPMP" style="rounded=0;whiteSpace=wrap;html=1;" parent="1" vertex="1">
          <mxGeometry x="480" y="480" width="60" height="260" as="geometry" />
        </mxCell>
        <mxCell id="TBJRazzx7p23CoDuYq6t-10" value="ICache" style="rounded=0;whiteSpace=wrap;html=1;" parent="1" vertex="1">
          <mxGeometry x="340" y="480" width="50" height="100" as="geometry" />
        </mxCell>
        <mxCell id="TBJRazzx7p23CoDuYq6t-11" value="ITLB" style="rounded=0;whiteSpace=wrap;html=1;" parent="1" vertex="1">
          <mxGeometry x="410" y="480" width="50" height="100" as="geometry" />
        </mxCell>
        <mxCell id="TBJRazzx7p23CoDuYq6t-12" value="Frontend" style="rounded=0;whiteSpace=wrap;html=1;" parent="1" vertex="1">
          <mxGeometry x="200" y="660" width="120" height="100" as="geometry" />
        </mxCell>
        <mxCell id="TBJRazzx7p23CoDuYq6t-13" value="DCache" style="rounded=0;whiteSpace=wrap;html=1;" parent="1" vertex="1">
          <mxGeometry x="340" y="660" width="120" height="30" as="geometry" />
        </mxCell>
        <mxCell id="TBJRazzx7p23CoDuYq6t-14" value="DTLB" style="rounded=0;whiteSpace=wrap;html=1;" parent="1" vertex="1">
          <mxGeometry x="340" y="710" width="120" height="30" as="geometry" />
        </mxCell>
        <mxCell id="TBJRazzx7p23CoDuYq6t-15" value="Frontend&lt;div&gt;&lt;br&gt;&lt;/div&gt;&lt;div&gt;&lt;br&gt;&lt;/div&gt;&lt;div&gt;&lt;br&gt;&lt;/div&gt;&lt;div&gt;&lt;br&gt;&lt;/div&gt;&lt;div&gt;&lt;br&gt;&lt;/div&gt;&lt;div&gt;&lt;br&gt;&lt;/div&gt;&lt;div&gt;&lt;br&gt;&lt;/div&gt;" style="rounded=0;whiteSpace=wrap;html=1;" parent="1" vertex="1">
          <mxGeometry x="720" y="410" width="140" height="160" as="geometry" />
        </mxCell>
        <mxCell id="TBJRazzx7p23CoDuYq6t-16" value="Dispatch" style="rounded=0;whiteSpace=wrap;html=1;textDirection=vertical-rl;rotation=-180;" parent="1" vertex="1">
          <mxGeometry x="880" y="410" width="30" height="160" as="geometry" />
        </mxCell>
        <mxCell id="TBJRazzx7p23CoDuYq6t-18" value="MEM Block&lt;div&gt;&lt;br&gt;&lt;/div&gt;&lt;div&gt;&lt;br&gt;&lt;/div&gt;&lt;div&gt;&lt;br&gt;&lt;/div&gt;&lt;div&gt;&lt;br&gt;&lt;/div&gt;" style="rounded=0;whiteSpace=wrap;html=1;" parent="1" vertex="1">
          <mxGeometry x="940" y="470" width="140" height="90" as="geometry" />
        </mxCell>
        <mxCell id="TBJRazzx7p23CoDuYq6t-19" value="sPMP Checker" style="rounded=0;whiteSpace=wrap;html=1;" parent="1" vertex="1">
          <mxGeometry x="720" y="592.5" width="370" height="35" as="geometry" />
        </mxCell>
        <mxCell id="TBJRazzx7p23CoDuYq6t-20" value="ICache" style="rounded=0;whiteSpace=wrap;html=1;" parent="1" vertex="1">
          <mxGeometry x="800" y="230" width="50" height="100" as="geometry" />
        </mxCell>
        <mxCell id="TBJRazzx7p23CoDuYq6t-24" value="DTLB" style="rounded=0;whiteSpace=wrap;html=1;" parent="1" vertex="1">
          <mxGeometry x="950" y="500" width="50" height="50" as="geometry" />
        </mxCell>
        <mxCell id="TBJRazzx7p23CoDuYq6t-26" value="PTW" style="rounded=0;whiteSpace=wrap;html=1;" parent="1" vertex="1">
          <mxGeometry x="1010" y="500" width="50" height="50" as="geometry" />
        </mxCell>
        <mxCell id="FsG2ZIIOOENPIE4-35Po-1" value="&lt;div&gt;IFU&lt;/div&gt;&lt;div&gt;&lt;br&gt;&lt;/div&gt;&lt;div&gt;&lt;br&gt;&lt;/div&gt;&lt;div&gt;&lt;br&gt;&lt;/div&gt;&lt;div&gt;&lt;br&gt;&lt;/div&gt;" style="rounded=0;whiteSpace=wrap;html=1;" parent="1" vertex="1">
          <mxGeometry x="740" y="470" width="110" height="90" as="geometry" />
        </mxCell>
        <mxCell id="TBJRazzx7p23CoDuYq6t-29" value="Nanhu-V2 core (RV64GCBK)" style="text;html=1;align=center;verticalAlign=middle;whiteSpace=wrap;rounded=0;" parent="1" vertex="1">
          <mxGeometry x="710" y="380" width="420" height="30" as="geometry" />
        </mxCell>
        <mxCell id="TBJRazzx7p23CoDuYq6t-30" value="" style="endArrow=classic;startArrow=classic;html=1;rounded=0;entryX=0.5;entryY=1;entryDx=0;entryDy=0;exitX=0.257;exitY=0.014;exitDx=0;exitDy=0;exitPerimeter=0;" parent="1" source="TBJRazzx7p23CoDuYq6t-19" target="TBJRazzx7p23CoDuYq6t-21" edge="1">
          <mxGeometry width="50" height="50" relative="1" as="geometry">
            <mxPoint x="820" y="440" as="sourcePoint" />
            <mxPoint x="870" y="390" as="targetPoint" />
          </mxGeometry>
        </mxCell>
        <mxCell id="TBJRazzx7p23CoDuYq6t-31" value="" style="endArrow=classic;startArrow=classic;html=1;rounded=0;entryX=0.5;entryY=1;entryDx=0;entryDy=0;exitX=0.69;exitY=-0.02;exitDx=0;exitDy=0;exitPerimeter=0;" parent="1" source="TBJRazzx7p23CoDuYq6t-19" target="TBJRazzx7p23CoDuYq6t-24" edge="1">
          <mxGeometry width="50" height="50" relative="1" as="geometry">
            <mxPoint x="970" y="591" as="sourcePoint" />
            <mxPoint x="970" y="560" as="targetPoint" />
          </mxGeometry>
        </mxCell>
        <mxCell id="TBJRazzx7p23CoDuYq6t-32" value="" style="endArrow=classic;startArrow=classic;html=1;rounded=0;entryX=0.5;entryY=1;entryDx=0;entryDy=0;exitX=0.69;exitY=-0.02;exitDx=0;exitDy=0;exitPerimeter=0;" parent="1" edge="1">
          <mxGeometry width="50" height="50" relative="1" as="geometry">
            <mxPoint x="1034.76" y="592" as="sourcePoint" />
            <mxPoint x="1034.76" y="550" as="targetPoint" />
          </mxGeometry>
        </mxCell>
        <mxCell id="TBJRazzx7p23CoDuYq6t-33" value="&lt;i&gt;&lt;font color=&quot;#007fff&quot; style=&quot;font-size: 10px;&quot;&gt;Check permission&lt;/font&gt;&lt;/i&gt;" style="text;html=1;align=center;verticalAlign=middle;whiteSpace=wrap;rounded=0;" parent="1" vertex="1">
          <mxGeometry x="840" y="570" width="130" height="22.5" as="geometry" />
        </mxCell>
        <mxCell id="TBJRazzx7p23CoDuYq6t-21" value="ITLB" style="rounded=0;whiteSpace=wrap;html=1;" parent="1" vertex="1">
          <mxGeometry x="790" y="500" width="50" height="50" as="geometry" />
        </mxCell>
        <mxCell id="FsG2ZIIOOENPIE4-35Po-28" value="" style="rounded=0;whiteSpace=wrap;html=1;" parent="1" vertex="1">
          <mxGeometry x="710" y="700" width="410" height="240" as="geometry" />
        </mxCell>
        <mxCell id="FsG2ZIIOOENPIE4-35Po-29" value="Backend&lt;div&gt;&lt;br&gt;&lt;/div&gt;&lt;div&gt;&lt;br&gt;&lt;/div&gt;&lt;div&gt;&lt;br&gt;&lt;/div&gt;&lt;div&gt;&lt;br&gt;&lt;/div&gt;&lt;div&gt;&lt;br&gt;&lt;/div&gt;&lt;div&gt;&lt;br&gt;&lt;/div&gt;&lt;div&gt;&lt;br&gt;&lt;/div&gt;&lt;div&gt;&lt;br&gt;&lt;/div&gt;" style="rounded=0;whiteSpace=wrap;html=1;" parent="1" vertex="1">
          <mxGeometry x="910" y="730" width="200" height="140" as="geometry" />
        </mxCell>
        <mxCell id="FsG2ZIIOOENPIE4-35Po-30" value="Frontend&lt;div&gt;&lt;br&gt;&lt;/div&gt;&lt;div&gt;&lt;br&gt;&lt;/div&gt;&lt;div&gt;&lt;br&gt;&lt;/div&gt;&lt;div&gt;&lt;br&gt;&lt;/div&gt;&lt;div&gt;&lt;br&gt;&lt;/div&gt;&lt;div&gt;&lt;br&gt;&lt;/div&gt;&lt;div&gt;&lt;br&gt;&lt;/div&gt;" style="rounded=0;whiteSpace=wrap;html=1;" parent="1" vertex="1">
          <mxGeometry x="720" y="730" width="140" height="140" as="geometry" />
        </mxCell>
        <mxCell id="FsG2ZIIOOENPIE4-35Po-31" value="Dispatch" style="rounded=0;whiteSpace=wrap;html=1;textDirection=vertical-rl;rotation=-180;" parent="1" vertex="1">
          <mxGeometry x="870" y="730" width="30" height="100" as="geometry" />
        </mxCell>
        <mxCell id="FsG2ZIIOOENPIE4-35Po-32" value="MEM Block&lt;div&gt;&lt;br&gt;&lt;/div&gt;&lt;div&gt;&lt;br&gt;&lt;/div&gt;&lt;div&gt;&lt;br&gt;&lt;/div&gt;&lt;div&gt;&lt;br&gt;&lt;/div&gt;&lt;div&gt;&lt;br&gt;&lt;/div&gt;&lt;div&gt;&lt;br&gt;&lt;/div&gt;" style="rounded=0;whiteSpace=wrap;html=1;" parent="1" vertex="1">
          <mxGeometry x="920" y="770" width="180" height="100" as="geometry" />
        </mxCell>
        <mxCell id="FsG2ZIIOOENPIE4-35Po-33" value="sPMP Checker" style="rounded=0;whiteSpace=wrap;html=1;" parent="1" vertex="1">
          <mxGeometry x="720" y="892.5" width="390" height="35" as="geometry" />
        </mxCell>
        <mxCell id="FsG2ZIIOOENPIE4-35Po-34" value="DTLB" style="rounded=0;whiteSpace=wrap;html=1;" parent="1" vertex="1">
          <mxGeometry x="1050" y="800.5" width="40" height="63" as="geometry" />
        </mxCell>
        <mxCell id="FsG2ZIIOOENPIE4-35Po-35" value="L2TLB&lt;div&gt;&lt;br&gt;&lt;/div&gt;&lt;div&gt;&lt;br&gt;&lt;/div&gt;&lt;div&gt;&lt;br&gt;&lt;/div&gt;" style="rounded=0;whiteSpace=wrap;html=1;" parent="1" vertex="1">
          <mxGeometry x="930" y="800" width="110" height="63" as="geometry" />
        </mxCell>
        <mxCell id="FsG2ZIIOOENPIE4-35Po-36" value="&lt;div&gt;IFU&lt;/div&gt;&lt;div&gt;&lt;br&gt;&lt;/div&gt;&lt;div&gt;&lt;br&gt;&lt;/div&gt;&lt;div&gt;&lt;br&gt;&lt;/div&gt;&lt;div&gt;&lt;br&gt;&lt;/div&gt;" style="rounded=0;whiteSpace=wrap;html=1;" parent="1" vertex="1">
          <mxGeometry x="730" y="773" width="123" height="90" as="geometry" />
        </mxCell>
        <mxCell id="FsG2ZIIOOENPIE4-35Po-37" value="Nanhu-V2 core (RV64GCBK)" style="text;html=1;align=center;verticalAlign=middle;whiteSpace=wrap;rounded=0;" parent="1" vertex="1">
          <mxGeometry x="710" y="700" width="420" height="30" as="geometry" />
        </mxCell>
        <mxCell id="FsG2ZIIOOENPIE4-35Po-38" value="" style="endArrow=classic;startArrow=classic;html=1;rounded=0;exitX=0.257;exitY=0.014;exitDx=0;exitDy=0;exitPerimeter=0;entryX=0.478;entryY=1;entryDx=0;entryDy=0;entryPerimeter=0;" parent="1" source="FsG2ZIIOOENPIE4-35Po-33" target="FsG2ZIIOOENPIE4-35Po-42" edge="1">
          <mxGeometry width="50" height="50" relative="1" as="geometry">
            <mxPoint x="820" y="740" as="sourcePoint" />
            <mxPoint x="820" y="860" as="targetPoint" />
            <Array as="points">
              <mxPoint x="820" y="880" />
            </Array>
          </mxGeometry>
        </mxCell>
        <mxCell id="FsG2ZIIOOENPIE4-35Po-39" value="" style="endArrow=classic;startArrow=classic;html=1;rounded=0;exitX=0.883;exitY=0.995;exitDx=0;exitDy=0;exitPerimeter=0;entryX=0.5;entryY=1;entryDx=0;entryDy=0;" parent="1" source="FsG2ZIIOOENPIE4-35Po-41" target="FsG2ZIIOOENPIE4-35Po-44" edge="1">
          <mxGeometry width="50" height="50" relative="1" as="geometry">
            <mxPoint x="970" y="891" as="sourcePoint" />
            <mxPoint x="955" y="850" as="targetPoint" />
          </mxGeometry>
        </mxCell>
        <mxCell id="FsG2ZIIOOENPIE4-35Po-40" value="" style="endArrow=classic;startArrow=classic;html=1;rounded=0;entryX=0.5;entryY=1;entryDx=0;entryDy=0;exitX=0.732;exitY=-0.005;exitDx=0;exitDy=0;exitPerimeter=0;" parent="1" source="FsG2ZIIOOENPIE4-35Po-33" target="FsG2ZIIOOENPIE4-35Po-45" edge="1">
          <mxGeometry width="50" height="50" relative="1" as="geometry">
            <mxPoint x="1034.76" y="892" as="sourcePoint" />
            <mxPoint x="1034.76" y="850" as="targetPoint" />
          </mxGeometry>
        </mxCell>
        <mxCell id="FsG2ZIIOOENPIE4-35Po-41" value="&lt;i&gt;&lt;font color=&quot;#007fff&quot; style=&quot;font-size: 10px;&quot;&gt;Check permission&lt;/font&gt;&lt;/i&gt;" style="text;html=1;align=center;verticalAlign=middle;whiteSpace=wrap;rounded=0;" parent="1" vertex="1">
          <mxGeometry x="840" y="870" width="130" height="22.5" as="geometry" />
        </mxCell>
        <mxCell id="FsG2ZIIOOENPIE4-35Po-42" value="ITLB" style="rounded=0;whiteSpace=wrap;html=1;" parent="1" vertex="1">
          <mxGeometry x="796" y="807" width="50" height="50" as="geometry" />
        </mxCell>
        <mxCell id="FsG2ZIIOOENPIE4-35Po-43" value="ICache" style="rounded=0;whiteSpace=wrap;html=1;" parent="1" vertex="1">
          <mxGeometry x="740" y="807" width="50" height="50" as="geometry" />
        </mxCell>
        <mxCell id="FsG2ZIIOOENPIE4-35Po-44" value="PTW" style="rounded=0;whiteSpace=wrap;html=1;" parent="1" vertex="1">
          <mxGeometry x="940" y="820" width="30" height="36.5" as="geometry" />
        </mxCell>
        <mxCell id="FsG2ZIIOOENPIE4-35Po-45" value="LLPTW" style="rounded=0;whiteSpace=wrap;html=1;" parent="1" vertex="1">
          <mxGeometry x="980" y="820" width="50" height="36.5" as="geometry" />
        </mxCell>
        <mxCell id="FsG2ZIIOOENPIE4-35Po-46" value="" style="endArrow=blockThin;html=1;rounded=0;exitX=1;exitY=0.75;exitDx=0;exitDy=0;strokeWidth=1;dashed=1;endFill=1;" parent="1" source="FsG2ZIIOOENPIE4-35Po-42" edge="1">
          <mxGeometry width="50" height="50" relative="1" as="geometry">
            <mxPoint x="870" y="800" as="sourcePoint" />
            <mxPoint x="930" y="845" as="targetPoint" />
          </mxGeometry>
        </mxCell>
        <mxCell id="FsG2ZIIOOENPIE4-35Po-47" value="" style="endArrow=classic;startArrow=classic;html=1;rounded=0;entryX=0.5;entryY=1;entryDx=0;entryDy=0;exitX=0.897;exitY=0.003;exitDx=0;exitDy=0;exitPerimeter=0;" parent="1" source="FsG2ZIIOOENPIE4-35Po-33" edge="1">
          <mxGeometry width="50" height="50" relative="1" as="geometry">
            <mxPoint x="1069.76" y="899.68" as="sourcePoint" />
            <mxPoint x="1069.76" y="863.68" as="targetPoint" />
          </mxGeometry>
        </mxCell>
      </root>
    </mxGraphModel>
  </diagram>
</mxfile>
